<svg xmlns="http://www.w3.org/2000/svg" xmlns:xlink="http://www.w3.org/1999/xlink" contentStyleType="text/css" data-diagram-type="TIMING" height="237px" preserveAspectRatio="none" style="width:411px;height:237px;background:#FFFFFF;" version="1.1" viewBox="0 0 411 237" width="411px" zoomAndPan="magnify"><?plantuml 1.2026.6?><defs/><g><line style="stroke:#333333;stroke-width:0.5;" x1="20" x2="20" y1="20" y2="197.1509"/><line style="stroke:#333333;stroke-width:0.5;" x1="390" x2="390" y1="20" y2="197.1509"/><line style="stroke:#333333;stroke-width:0.5;stroke-dasharray:3,5;" x1="25" x2="25" y1="20" y2="197.1509"/><line style="stroke:#333333;stroke-width:0.5;stroke-dasharray:3,5;" x1="115" x2="115" y1="20" y2="197.1509"/><line style="stroke:#333333;stroke-width:0.5;stroke-dasharray:3,5;" x1="205" x2="205" y1="20" y2="197.1509"/><line style="stroke:#333333;stroke-width:0.5;stroke-dasharray:3,5;" x1="295" x2="295" y1="20" y2="197.1509"/><line style="stroke:#333333;stroke-width:0.5;stroke-dasharray:3,5;" x1="385" x2="385" y1="20" y2="197.1509"/><line style="stroke:#333333;stroke-width:0.5;" x1="20" x2="390" y1="20" y2="20"/><text fill="#243247" font-family="Microsoft YaHei UI" font-size="15" font-weight="700" lengthAdjust="spacing" textLength="83.7451" x="25" y="35.2344">&#25512;&#29702; / QNN</text><line style="stroke:#333333;stroke-width:0.5;" x1="20" x2="109.7451" y1="40.0503" y2="40.0503"/><line style="stroke:#333333;stroke-width:0.5;" x1="109.7451" x2="119.7451" y1="40.0503" y2="20"/><polygon fill="#E7F3EB" points="37,45.0503,103,45.0503,115,57.0503,103,69.0503,37,69.0503,25,57.0503" style="stroke:#006400;stroke-width:1.5;stroke-linejoin:miter;stroke-miterlimit:10;"/><polygon fill="#E7F3EB" points="127,45.0503,193,45.0503,205,57.0503,193,69.0503,127,69.0503,115,57.0503" style="stroke:#006400;stroke-width:1.5;stroke-linejoin:miter;stroke-miterlimit:10;"/><polygon fill="#E7F3EB" points="217,45.0503,283,45.0503,295,57.0503,283,69.0503,217,69.0503,205,57.0503" style="stroke:#006400;stroke-width:1.5;stroke-linejoin:miter;stroke-miterlimit:10;"/><polygon fill="#E7F3EB" points="307,45.0503,385,45.0503,385,69.0503,307,69.0503,295,57.0503" style="stroke:#E7F3EB;stroke-width:1.5;stroke-linejoin:miter;stroke-miterlimit:10;"/><path d="M385,45.0503 L307,45.0503 L295,57.0503 L307,69.0503 L385,69.0503" fill="#E7F3EB" style="stroke:#006400;stroke-width:1.5;"/><text fill="#243247" font-family="Microsoft YaHei UI" font-size="15" font-weight="700" lengthAdjust="spacing" textLength="33.3911" x="53.3044" y="62.7595">N+1</text><text fill="#243247" font-family="Microsoft YaHei UI" font-size="15" font-weight="700" lengthAdjust="spacing" textLength="33.3911" x="143.3044" y="62.7595">N+2</text><text fill="#243247" font-family="Microsoft YaHei UI" font-size="15" font-weight="700" lengthAdjust="spacing" textLength="33.3911" x="233.3044" y="62.7595">N+3</text><text fill="#243247" font-family="Microsoft YaHei UI" font-size="15" font-weight="700" lengthAdjust="spacing" textLength="33.3911" x="307" y="62.7595">N+4</text><line style="stroke:#333333;stroke-width:0.5;" x1="20" x2="390" y1="79.0503" y2="79.0503"/><text fill="#243247" font-family="Microsoft YaHei UI" font-size="15" font-weight="700" lengthAdjust="spacing" textLength="94.0649" x="25" y="94.2847">&#21518;&#22788;&#29702; / Java</text><line style="stroke:#333333;stroke-width:0.5;" x1="20" x2="120.0649" y1="99.1006" y2="99.1006"/><line style="stroke:#333333;stroke-width:0.5;" x1="120.0649" x2="130.0649" y1="99.1006" y2="79.0503"/><polygon fill="#F1F3F6" points="37,104.1006,103,104.1006,115,116.1006,103,128.1006,37,128.1006,25,116.1006" style="stroke:#006400;stroke-width:1.5;stroke-linejoin:miter;stroke-miterlimit:10;"/><polygon fill="#F1F3F6" points="127,104.1006,193,104.1006,205,116.1006,193,128.1006,127,128.1006,115,116.1006" style="stroke:#006400;stroke-width:1.5;stroke-linejoin:miter;stroke-miterlimit:10;"/><polygon fill="#F1F3F6" points="217,104.1006,283,104.1006,295,116.1006,283,128.1006,217,128.1006,205,116.1006" style="stroke:#006400;stroke-width:1.5;stroke-linejoin:miter;stroke-miterlimit:10;"/><polygon fill="#F1F3F6" points="307,104.1006,385,104.1006,385,128.1006,307,128.1006,295,116.1006" style="stroke:#F1F3F6;stroke-width:1.5;stroke-linejoin:miter;stroke-miterlimit:10;"/><path d="M385,104.1006 L307,104.1006 L295,116.1006 L307,128.1006 L385,128.1006" fill="#F1F3F6" style="stroke:#006400;stroke-width:1.5;"/><text fill="#243247" font-family="Microsoft YaHei UI" font-size="15" font-weight="700" lengthAdjust="spacing" textLength="12.7222" x="63.6389" y="121.8098">N</text><text fill="#243247" font-family="Microsoft YaHei UI" font-size="15" font-weight="700" lengthAdjust="spacing" textLength="33.3911" x="143.3044" y="121.8098">N+1</text><text fill="#243247" font-family="Microsoft YaHei UI" font-size="15" font-weight="700" lengthAdjust="spacing" textLength="33.3911" x="233.3044" y="121.8098">N+2</text><text fill="#243247" font-family="Microsoft YaHei UI" font-size="15" font-weight="700" lengthAdjust="spacing" textLength="33.3911" x="307" y="121.8098">N+3</text><line style="stroke:#333333;stroke-width:0.5;" x1="20" x2="390" y1="138.1006" y2="138.1006"/><text fill="#243247" font-family="Microsoft YaHei UI" font-size="15" font-weight="700" lengthAdjust="spacing" textLength="95.7056" x="25" y="153.335">&#19978;&#20256;&#25552;&#20132; / GL</text><line style="stroke:#333333;stroke-width:0.5;" x1="20" x2="121.7056" y1="158.1509" y2="158.1509"/><line style="stroke:#333333;stroke-width:0.5;" x1="121.7056" x2="131.7056" y1="158.1509" y2="138.1006"/><polygon fill="#E8F1FB" points="37,163.1509,103,163.1509,115,175.1509,103,187.1509,37,187.1509,25,175.1509" style="stroke:#006400;stroke-width:1.5;stroke-linejoin:miter;stroke-miterlimit:10;"/><polygon fill="#E8F1FB" points="127,163.1509,193,163.1509,205,175.1509,193,187.1509,127,187.1509,115,175.1509" style="stroke:#006400;stroke-width:1.5;stroke-linejoin:miter;stroke-miterlimit:10;"/><polygon fill="#E8F1FB" points="217,163.1509,283,163.1509,295,175.1509,283,187.1509,217,187.1509,205,175.1509" style="stroke:#006400;stroke-width:1.5;stroke-linejoin:miter;stroke-miterlimit:10;"/><polygon fill="#E8F1FB" points="307,163.1509,385,163.1509,385,187.1509,307,187.1509,295,175.1509" style="stroke:#E8F1FB;stroke-width:1.5;stroke-linejoin:miter;stroke-miterlimit:10;"/><path d="M385,163.1509 L307,163.1509 L295,175.1509 L307,187.1509 L385,187.1509" fill="#E8F1FB" style="stroke:#006400;stroke-width:1.5;"/><text fill="#243247" font-family="Microsoft YaHei UI" font-size="15" font-weight="700" lengthAdjust="spacing" textLength="33.3911" x="53.3044" y="180.8601">N&#8722;1</text><text fill="#243247" font-family="Microsoft YaHei UI" font-size="15" font-weight="700" lengthAdjust="spacing" textLength="12.7222" x="153.6389" y="180.8601">N</text><text fill="#243247" font-family="Microsoft YaHei UI" font-size="15" font-weight="700" lengthAdjust="spacing" textLength="33.3911" x="233.3044" y="180.8601">N+1</text><text fill="#243247" font-family="Microsoft YaHei UI" font-size="15" font-weight="700" lengthAdjust="spacing" textLength="33.3911" x="307" y="180.8601">N+2</text><line style="stroke:#333333;stroke-width:2;" x1="25" x2="25" y1="197.1509" y2="202.1509"/><line style="stroke:#333333;stroke-width:2;" x1="115" x2="115" y1="197.1509" y2="202.1509"/><line style="stroke:#333333;stroke-width:2;" x1="205" x2="205" y1="197.1509" y2="202.1509"/><line style="stroke:#333333;stroke-width:2;" x1="295" x2="295" y1="197.1509" y2="202.1509"/><line style="stroke:#333333;stroke-width:2;" x1="385" x2="385" y1="197.1509" y2="202.1509"/><line style="stroke:#333333;stroke-width:2;" x1="25" x2="385" y1="197.1509" y2="197.1509"/><text fill="#243247" font-family="Microsoft YaHei UI" font-size="15" lengthAdjust="spacing" textLength="8.7964" x="20.6018" y="218.3853">0</text><text fill="#243247" font-family="Microsoft YaHei UI" font-size="15" lengthAdjust="spacing" textLength="8.7964" x="110.6018" y="218.3853">1</text><text fill="#243247" font-family="Microsoft YaHei UI" font-size="15" lengthAdjust="spacing" textLength="8.7964" x="200.6018" y="218.3853">2</text><text fill="#243247" font-family="Microsoft YaHei UI" font-size="15" lengthAdjust="spacing" textLength="8.7964" x="290.6018" y="218.3853">3</text><text fill="#243247" font-family="Microsoft YaHei UI" font-size="15" lengthAdjust="spacing" textLength="8.7964" x="380.6018" y="218.3853">4</text><?plantuml-src RP2zJiCm54PtFyLLEdQW-Q4f6wHg0YX48DI1qIHEQpM9gpWb2CI6468e5K_0q857G8YdGMrv3Pm4KPTcido_yvrhcOzeCiOfZY4W8Pv4cSsIpCCnWHFgfuopC8CBV4Wez8yGhuFFwGq1TRS-xBA8fT3G35qpJ0cvnFveaB994bH4FgGPaN8-n07BQJA044TSJWxIbEM_shPX6XrB2ZCQ5vrR1B2z7S2b2TcitY7aiyIdd82ochvzpnvW1yuyJm7CYtETBcVJvVo-0exn5Iw9xcb_JIpUdnQVhwldsU9ZBY37BH77HTp7aVYYuhRNWZ6z9X57QB-5n0AW71IlgIhGw9csthEGS5P3CR9LMxVRo76hoTVZImbsnDmI1bKoQ3M6KllF8VSrgQ_NzRNjVdFZ1RfaCEeCUer1-pFy0000?></g></svg>